<svg width="68" height="39" viewBox="0 0 68 39" fill="none" xmlns="http://www.w3.org/2000/svg">
<path d="M34 2C28.48 2 24 6.48 24 12C24 17.52 28.48 22 34 22C39.52 22 44 17.52 44 12C44 6.48 39.52 2 34 2ZM34 8.75C33.59 8.75 33.25 8.41 33.25 8C33.25 7.59 33.59 7.25 34 7.25C36.62 7.25 38.75 9.38 38.75 12C38.75 14.62 36.62 16.75 34 16.75C33.59 16.75 33.25 16.41 33.25 16C33.25 15.59 33.59 15.25 34 15.25C35.79 15.25 37.25 13.79 37.25 12C37.25 10.21 35.79 8.75 34 8.75ZM34 19.75C29.73 19.75 26.25 16.27 26.25 12C26.25 11.59 26.59 11.25 27 11.25C27.41 11.25 27.75 11.59 27.75 12C27.75 15.45 30.55 18.25 34 18.25C37.45 18.25 40.25 15.45 40.25 12C40.25 8.55 37.45 5.75 34 5.75C33.59 5.75 33.25 5.41 33.25 5C33.25 4.59 33.59 4.25 34 4.25C38.27 4.25 41.75 7.73 41.75 12C41.75 16.27 38.27 19.75 34 19.75Z" fill="#178671"/>
<path d="M8.895 28.05C9.635 28.05 10.2817 28.1933 10.835 28.48C11.395 28.76 11.825 29.1667 12.125 29.7C12.4317 30.2267 12.585 30.8433 12.585 31.55C12.585 32.2567 12.4317 32.87 12.125 33.39C11.825 33.91 11.395 34.31 10.835 34.59C10.2817 34.8633 9.635 35 8.895 35H6.625V28.05H8.895ZM8.895 34.07C9.70833 34.07 10.3317 33.85 10.765 33.41C11.1983 32.97 11.415 32.35 11.415 31.55C11.415 30.7433 11.1983 30.1133 10.765 29.66C10.3317 29.2067 9.70833 28.98 8.895 28.98H7.765V34.07H8.895ZM13.3348 32.22C13.3348 31.6667 13.4482 31.1767 13.6748 30.75C13.9082 30.3233 14.2215 29.9933 14.6148 29.76C15.0148 29.52 15.4548 29.4 15.9348 29.4C16.3682 29.4 16.7448 29.4867 17.0648 29.66C17.3915 29.8267 17.6515 30.0367 17.8448 30.29V29.49H18.9948V35H17.8448V34.18C17.6515 34.44 17.3882 34.6567 17.0548 34.83C16.7215 35.0033 16.3415 35.09 15.9148 35.09C15.4415 35.09 15.0082 34.97 14.6148 34.73C14.2215 34.4833 13.9082 34.1433 13.6748 33.71C13.4482 33.27 13.3348 32.7733 13.3348 32.22ZM17.8448 32.24C17.8448 31.86 17.7648 31.53 17.6048 31.25C17.4515 30.97 17.2482 30.7567 16.9948 30.61C16.7415 30.4633 16.4682 30.39 16.1748 30.39C15.8815 30.39 15.6082 30.4633 15.3548 30.61C15.1015 30.75 14.8948 30.96 14.7348 31.24C14.5815 31.5133 14.5048 31.84 14.5048 32.22C14.5048 32.6 14.5815 32.9333 14.7348 33.22C14.8948 33.5067 15.1015 33.7267 15.3548 33.88C15.6148 34.0267 15.8882 34.1 16.1748 34.1C16.4682 34.1 16.7415 34.0267 16.9948 33.88C17.2482 33.7333 17.4515 33.52 17.6048 33.24C17.7648 32.9533 17.8448 32.62 17.8448 32.24ZM22.4922 35.09C22.0589 35.09 21.6689 35.0133 21.3222 34.86C20.9822 34.7 20.7122 34.4867 20.5122 34.22C20.3122 33.9467 20.2055 33.6433 20.1922 33.31H21.3722C21.3922 33.5433 21.5022 33.74 21.7022 33.9C21.9089 34.0533 22.1655 34.13 22.4722 34.13C22.7922 34.13 23.0389 34.07 23.2122 33.95C23.3922 33.8233 23.4822 33.6633 23.4822 33.47C23.4822 33.2633 23.3822 33.11 23.1822 33.01C22.9889 32.91 22.6789 32.8 22.2522 32.68C21.8389 32.5667 21.5022 32.4567 21.2422 32.35C20.9822 32.2433 20.7555 32.08 20.5622 31.86C20.3755 31.64 20.2822 31.35 20.2822 30.99C20.2822 30.6967 20.3689 30.43 20.5422 30.19C20.7155 29.9433 20.9622 29.75 21.2822 29.61C21.6089 29.47 21.9822 29.4 22.4022 29.4C23.0289 29.4 23.5322 29.56 23.9122 29.88C24.2989 30.1933 24.5055 30.6233 24.5322 31.17H23.3922C23.3722 30.9233 23.2722 30.7267 23.0922 30.58C22.9122 30.4333 22.6689 30.36 22.3622 30.36C22.0622 30.36 21.8322 30.4167 21.6722 30.53C21.5122 30.6433 21.4322 30.7933 21.4322 30.98C21.4322 31.1267 21.4855 31.25 21.5922 31.35C21.6989 31.45 21.8289 31.53 21.9822 31.59C22.1355 31.6433 22.3622 31.7133 22.6622 31.8C23.0622 31.9067 23.3889 32.0167 23.6422 32.13C23.9022 32.2367 24.1255 32.3967 24.3122 32.61C24.4989 32.8233 24.5955 33.1067 24.6022 33.46C24.6022 33.7733 24.5155 34.0533 24.3422 34.3C24.1689 34.5467 23.9222 34.74 23.6022 34.88C23.2889 35.02 22.9189 35.09 22.4922 35.09ZM28.684 29.4C29.104 29.4 29.4773 29.49 29.804 29.67C30.1373 29.85 30.3973 30.1167 30.584 30.47C30.7773 30.8233 30.874 31.25 30.874 31.75V35H29.744V31.92C29.744 31.4267 29.6207 31.05 29.374 30.79C29.1273 30.5233 28.7907 30.39 28.364 30.39C27.9373 30.39 27.5973 30.5233 27.344 30.79C27.0973 31.05 26.974 31.4267 26.974 31.92V35H25.834V27.6H26.974V30.13C27.1673 29.8967 27.4107 29.7167 27.704 29.59C28.004 29.4633 28.3307 29.4 28.684 29.4ZM33.4681 30.31C33.6615 30.0433 33.9248 29.8267 34.2581 29.66C34.5981 29.4867 34.9748 29.4 35.3881 29.4C35.8748 29.4 36.3148 29.5167 36.7081 29.75C37.1015 29.9833 37.4115 30.3167 37.6381 30.75C37.8648 31.1767 37.9781 31.6667 37.9781 32.22C37.9781 32.7733 37.8648 33.27 37.6381 33.71C37.4115 34.1433 37.0981 34.4833 36.6981 34.73C36.3048 34.97 35.8681 35.09 35.3881 35.09C34.9615 35.09 34.5815 35.0067 34.2481 34.84C33.9215 34.6733 33.6615 34.46 33.4681 34.2V35H32.3281V27.6H33.4681V30.31ZM36.8181 32.22C36.8181 31.84 36.7381 31.5133 36.5781 31.24C36.4248 30.96 36.2181 30.75 35.9581 30.61C35.7048 30.4633 35.4315 30.39 35.1381 30.39C34.8515 30.39 34.5781 30.4633 34.3181 30.61C34.0648 30.7567 33.8581 30.97 33.6981 31.25C33.5448 31.53 33.4681 31.86 33.4681 32.24C33.4681 32.62 33.5448 32.9533 33.6981 33.24C33.8581 33.52 34.0648 33.7333 34.3181 33.88C34.5781 34.0267 34.8515 34.1 35.1381 34.1C35.4315 34.1 35.7048 34.0267 35.9581 33.88C36.2181 33.7267 36.4248 33.5067 36.5781 33.22C36.7381 32.9333 36.8181 32.6 36.8181 32.22ZM41.4955 35.09C40.9755 35.09 40.5055 34.9733 40.0855 34.74C39.6655 34.5 39.3355 34.1667 39.0955 33.74C38.8555 33.3067 38.7355 32.8067 38.7355 32.24C38.7355 31.68 38.8588 31.1833 39.1055 30.75C39.3521 30.3167 39.6888 29.9833 40.1155 29.75C40.5421 29.5167 41.0188 29.4 41.5455 29.4C42.0721 29.4 42.5488 29.5167 42.9755 29.75C43.4021 29.9833 43.7388 30.3167 43.9855 30.75C44.2321 31.1833 44.3555 31.68 44.3555 32.24C44.3555 32.8 44.2288 33.2967 43.9755 33.73C43.7221 34.1633 43.3755 34.5 42.9355 34.74C42.5021 34.9733 42.0221 35.09 41.4955 35.09ZM41.4955 34.1C41.7888 34.1 42.0621 34.03 42.3155 33.89C42.5755 33.75 42.7855 33.54 42.9455 33.26C43.1055 32.98 43.1855 32.64 43.1855 32.24C43.1855 31.84 43.1088 31.5033 42.9555 31.23C42.8021 30.95 42.5988 30.74 42.3455 30.6C42.0921 30.46 41.8188 30.39 41.5255 30.39C41.2321 30.39 40.9588 30.46 40.7055 30.6C40.4588 30.74 40.2621 30.95 40.1155 31.23C39.9688 31.5033 39.8955 31.84 39.8955 32.24C39.8955 32.8333 40.0455 33.2933 40.3455 33.62C40.6521 33.94 41.0355 34.1 41.4955 34.1ZM45.1024 32.22C45.1024 31.6667 45.2158 31.1767 45.4424 30.75C45.6758 30.3233 45.9891 29.9933 46.3824 29.76C46.7824 29.52 47.2224 29.4 47.7024 29.4C48.1358 29.4 48.5124 29.4867 48.8324 29.66C49.1591 29.8267 49.4191 30.0367 49.6124 30.29V29.49H50.7624V35H49.6124V34.18C49.4191 34.44 49.1558 34.6567 48.8224 34.83C48.4891 35.0033 48.1091 35.09 47.6824 35.09C47.2091 35.09 46.7758 34.97 46.3824 34.73C45.9891 34.4833 45.6758 34.1433 45.4424 33.71C45.2158 33.27 45.1024 32.7733 45.1024 32.22ZM49.6124 32.24C49.6124 31.86 49.5324 31.53 49.3724 31.25C49.2191 30.97 49.0158 30.7567 48.7624 30.61C48.5091 30.4633 48.2358 30.39 47.9424 30.39C47.6491 30.39 47.3758 30.4633 47.1224 30.61C46.8691 30.75 46.6624 30.96 46.5024 31.24C46.3491 31.5133 46.2724 31.84 46.2724 32.22C46.2724 32.6 46.3491 32.9333 46.5024 33.22C46.6624 33.5067 46.8691 33.7267 47.1224 33.88C47.3824 34.0267 47.6558 34.1 47.9424 34.1C48.2358 34.1 48.5091 34.0267 48.7624 33.88C49.0158 33.7333 49.2191 33.52 49.3724 33.24C49.5324 32.9533 49.6124 32.62 49.6124 32.24ZM53.3998 30.29C53.5664 30.01 53.7864 29.7933 54.0598 29.64C54.3398 29.48 54.6698 29.4 55.0498 29.4V30.58H54.7598C54.3131 30.58 53.9731 30.6933 53.7398 30.92C53.5131 31.1467 53.3998 31.54 53.3998 32.1V35H52.2598V29.49H53.3998V30.29ZM55.7177 32.22C55.7177 31.6667 55.831 31.1767 56.0577 30.75C56.291 30.3233 56.6043 29.9933 56.9977 29.76C57.3977 29.52 57.841 29.4 58.3277 29.4C58.6877 29.4 59.041 29.48 59.3877 29.64C59.741 29.7933 60.021 30 60.2277 30.26V27.6H61.3777V35H60.2277V34.17C60.041 34.4367 59.781 34.6567 59.4477 34.83C59.121 35.0033 58.7443 35.09 58.3177 35.09C57.8377 35.09 57.3977 34.97 56.9977 34.73C56.6043 34.4833 56.291 34.1433 56.0577 33.71C55.831 33.27 55.7177 32.7733 55.7177 32.22ZM60.2277 32.24C60.2277 31.86 60.1477 31.53 59.9877 31.25C59.8343 30.97 59.631 30.7567 59.3777 30.61C59.1243 30.4633 58.851 30.39 58.5577 30.39C58.2643 30.39 57.991 30.4633 57.7377 30.61C57.4843 30.75 57.2777 30.96 57.1177 31.24C56.9643 31.5133 56.8877 31.84 56.8877 32.22C56.8877 32.6 56.9643 32.9333 57.1177 33.22C57.2777 33.5067 57.4843 33.7267 57.7377 33.88C57.9977 34.0267 58.271 34.1 58.5577 34.1C58.851 34.1 59.1243 34.0267 59.3777 33.88C59.631 33.7333 59.8343 33.52 59.9877 33.24C60.1477 32.9533 60.2277 32.62 60.2277 32.24Z" fill="#178671"/>
</svg>
