<svg width="35" height="35" viewBox="0 0 35 35" fill="none" xmlns="http://www.w3.org/2000/svg">
<rect x="0.5" y="0.5" width="34" height="34" rx="4.5" stroke="#DCE0FB"/>
<path d="M26.25 12.916H21" stroke="#889BAF" stroke-width="1.5" stroke-miterlimit="10" stroke-linecap="round" stroke-linejoin="round"/>
<path d="M12.25 12.916H8.75" stroke="#889BAF" stroke-width="1.5" stroke-miterlimit="10" stroke-linecap="round" stroke-linejoin="round"/>
<path d="M15.75 15.8333C17.4414 15.8333 18.8125 14.5275 18.8125 12.9167C18.8125 11.3058 17.4414 10 15.75 10C14.0586 10 12.6875 11.3058 12.6875 12.9167C12.6875 14.5275 14.0586 15.8333 15.75 15.8333Z" stroke="#889BAF" stroke-width="1.5" stroke-miterlimit="10" stroke-linecap="round" stroke-linejoin="round"/>
<path d="M26.25 22.084H22.75" stroke="#889BAF" stroke-width="1.5" stroke-miterlimit="10" stroke-linecap="round" stroke-linejoin="round"/>
<path d="M14 22.084H8.75" stroke="#889BAF" stroke-width="1.5" stroke-miterlimit="10" stroke-linecap="round" stroke-linejoin="round"/>
<path d="M19.25 24.9993C20.9414 24.9993 22.3125 23.6935 22.3125 22.0827C22.3125 20.4719 20.9414 19.166 19.25 19.166C17.5586 19.166 16.1875 20.4719 16.1875 22.0827C16.1875 23.6935 17.5586 24.9993 19.25 24.9993Z" stroke="#889BAF" stroke-width="1.5" stroke-miterlimit="10" stroke-linecap="round" stroke-linejoin="round"/>
</svg>
