<svg width="88" height="88" viewBox="0 0 88 88" fill="none" xmlns="http://www.w3.org/2000/svg">
<path opacity="0.36" fill-rule="evenodd" clip-rule="evenodd" d="M43.8188 -27.3474C36.5568 -31.2633 28.2468 -33.4856 19.4178 -33.4856C18.919 -33.4856 18.5146 -33.0812 18.5146 -32.5824C18.5146 -23.7533 20.737 -15.4433 24.6529 -8.18126C16.4058 -7.9415 8.09797 -5.71115 0.451778 -1.29662C0.019758 -1.04719 -0.128263 -0.49477 0.121164 -0.0627518C4.53567 7.5834 10.6153 13.6688 17.6375 18C10.6153 22.3312 4.53569 28.4166 0.121194 36.0628C-0.128233 36.4948 0.0197884 37.0472 0.451808 37.2966C8.09794 41.7111 16.4057 43.9415 24.6527 44.1813C20.7369 51.4432 18.5146 59.7531 18.5146 68.5821C18.5146 69.0809 18.919 69.4853 19.4178 69.4853C28.2468 69.4853 36.5567 67.263 43.8187 63.3471C44.0585 71.5942 46.2888 79.902 50.7034 87.5482C50.9528 87.9802 51.5052 88.1283 51.9372 87.8788C59.5834 83.4643 65.6688 77.3847 70 70.3625C74.3312 77.3847 80.4166 83.4643 88.0628 87.8788C88.4948 88.1283 89.0472 87.9802 89.2966 87.5482C93.7112 79.902 95.9415 71.5941 96.1813 63.3471C103.443 67.263 111.753 69.4853 120.582 69.4853C121.081 69.4853 121.486 69.0809 121.486 68.5821C121.486 59.7531 119.263 51.4432 115.347 44.1812C123.594 43.9414 131.902 41.7111 139.548 37.2966C139.98 37.0472 140.128 36.4948 139.879 36.0628C135.464 28.4166 129.385 22.3312 122.363 18C129.385 13.6688 135.464 7.5834 139.879 -0.0627518C140.128 -0.49477 139.98 -1.04719 139.548 -1.29662C131.902 -5.71113 123.594 -7.94148 115.347 -8.18126C119.263 -15.4433 121.486 -23.7533 121.486 -32.5824C121.486 -33.0812 121.081 -33.4856 120.582 -33.4856C111.753 -33.4856 103.443 -31.2632 96.1812 -27.3474C95.9414 -35.5943 93.7111 -43.9021 89.2966 -51.5482C89.0472 -51.9802 88.4948 -52.1283 88.0627 -51.8788C80.4166 -47.4643 74.3312 -41.3847 70 -34.3625C65.6688 -41.3847 59.5834 -47.4643 51.9373 -51.8788C51.5053 -52.1283 50.9528 -51.9802 50.7034 -51.5482C46.2889 -43.9021 44.0586 -35.5944 43.8188 -27.3474ZM65.174 9.64112C61.3942 5.25274 56.9691 1.61964 52.1259 -1.1973C48.1288 -8.22404 45.8983 -16.1392 45.6311 -24.2084C52.4856 -19.9424 58.2249 -14.0532 62.3117 -7.07833C62.3296 -1.47551 63.2634 4.1734 65.174 9.64112ZM62.405 -10.3453C58.0972 -16.8652 52.3458 -22.3475 45.6062 -26.337C45.6843 -34.3232 47.6923 -42.3968 51.8193 -49.8515C59.1207 -45.459 64.8965 -39.471 68.9572 -32.5937C65.1153 -25.769 62.8757 -18.1455 62.405 -10.3453ZM64.2682 -3.39153C64.7298 2.5249 66.2623 8.43486 68.9423 14.0523C68.4545 7.84746 66.8267 1.96305 64.2682 -3.39153ZM48.6093 12.2683C54.5252 12.7299 60.4347 14.2623 66.0518 16.942C59.8474 16.4541 53.9635 14.8265 48.6093 12.2683ZM44.9223 10.3117C50.5249 10.3297 56.1736 11.2635 61.6411 13.174C57.2528 9.39416 53.6197 4.96906 50.8027 0.125938C43.7761 -3.87116 35.8611 -6.1017 27.7919 -6.36893C32.058 0.4856 37.9472 6.22497 44.9223 10.3117ZM25.6633 -6.39378C29.6528 0.345787 35.1352 6.09716 41.6552 10.405C33.8548 10.8756 26.2311 13.1153 19.4063 16.9572C12.529 12.8965 6.54099 7.12074 2.14846 -0.180763C9.6033 -4.30782 17.677 -6.31575 25.6633 -6.39378ZM26.7061 -8.19992C34.5374 -8.11471 42.2594 -6.24251 49.25 -2.75C45.7575 -9.7407 43.8853 -17.4628 43.8001 -25.2942C36.8447 -29.2197 28.8488 -31.5176 20.3293 -31.6709C20.4826 -23.1513 22.7805 -15.1553 26.7061 -8.19992ZM94.3938 -26.3369C94.3157 -34.3232 92.3078 -42.3968 88.1807 -49.8515C80.8793 -45.459 75.1035 -39.471 71.0428 -32.5937C74.8847 -25.769 77.1243 -18.1454 77.595 -10.3451C81.9028 -16.8651 87.6542 -22.3474 94.3938 -26.3369ZM77.6883 -7.07814C81.7751 -14.0531 87.5144 -19.9423 94.3689 -24.2083C94.1017 -16.1391 91.8712 -8.22401 87.8741 -1.19729C83.0309 1.61964 78.6059 5.25274 74.826 9.64112C76.7366 4.17346 77.6704 -1.47538 77.6883 -7.07814ZM71.0579 14.052C73.7377 8.43474 75.2702 2.52499 75.7318 -3.39124C73.1734 1.96318 71.5457 7.84738 71.0579 14.052ZM75.8808 -7.56246C73.095 -2.70138 71.0793 2.65751 70.0001 8.34786C68.9208 2.65742 66.9051 -2.70154 64.1192 -7.56267C64.171 -15.6464 66.1969 -23.6162 70 -30.7379C73.8032 -23.6162 75.829 -15.6463 75.8808 -7.56246ZM96.1999 -25.2941C103.155 -29.2197 111.151 -31.5176 119.671 -31.6709C119.518 -23.1513 117.22 -15.1553 113.294 -8.19992C105.463 -8.11473 97.7406 -6.24253 90.75 -2.75C94.2425 -9.74068 96.1147 -17.4627 96.1999 -25.2941ZM112.208 -6.36893C104.139 -6.10172 96.224 -3.87119 89.1973 0.125938C86.3803 4.96906 82.7472 9.39416 78.3589 13.174C83.8264 11.2635 89.4752 10.3297 95.0779 10.3117C102.053 6.22497 107.942 0.485596 112.208 -6.36893ZM73.9482 16.942C80.1526 16.4542 86.0366 14.8265 91.3909 12.2683C85.4749 12.7299 79.5653 14.2623 73.9482 16.942ZM95.5622 12.1192C103.646 12.171 111.616 14.1968 118.738 18C111.616 21.8031 103.646 23.829 95.5627 23.8808C90.7015 21.0949 85.3425 19.0791 79.6521 17.9999C85.3423 16.9206 90.7012 14.905 95.5622 12.1192ZM73.9475 19.0576C79.5651 21.7377 85.4751 23.2702 91.3916 23.7318C86.037 21.1733 80.1525 19.5454 73.9475 19.0576ZM95.0784 25.6883C102.053 29.7751 107.942 35.5144 112.208 42.3689C104.139 42.1018 96.2241 39.8712 89.1973 35.8741C86.3804 31.031 82.7473 26.6059 78.3589 22.826C83.8266 24.7366 89.4755 25.6704 95.0784 25.6883ZM114.337 42.3938C110.348 35.6542 104.865 29.9028 98.3453 25.595C106.146 25.1243 113.769 22.8846 120.594 19.0428C127.471 23.1035 133.459 28.8793 137.852 36.1808C130.397 40.3078 122.323 42.3157 114.337 42.3938ZM113.294 44.1999C105.463 44.1147 97.7407 42.2426 90.75 38.75C94.2425 45.7406 96.1147 53.4626 96.1999 61.2939C103.155 65.2194 111.151 67.5173 119.671 67.6706C119.518 59.1511 117.22 51.1552 113.294 44.1999ZM94.3689 60.2081C94.1017 52.1389 91.8712 44.224 87.8741 37.1973C83.031 34.3804 78.6058 30.7473 74.826 26.3589C76.7365 31.8264 77.6703 37.4751 77.6883 43.0778C81.775 50.0528 87.5144 55.942 94.3689 60.2081ZM71.0579 21.9481C71.5458 28.1525 73.1735 34.0366 75.7317 39.3908C75.2701 33.4748 73.7377 27.5652 71.0579 21.9481ZM75.8807 43.5621C75.829 51.646 73.8032 59.616 70 66.7378C66.1968 59.6161 64.171 51.6462 64.1193 43.5623C66.9051 38.7012 68.9208 33.3423 70.0001 27.6518C71.0793 33.3422 73.095 38.7011 75.8807 43.5621ZM64.2683 39.3911C64.7299 33.4749 66.2623 27.5651 68.9422 21.9478C68.4544 28.1525 66.8266 34.0367 64.2683 39.3911ZM62.3117 43.078C58.225 50.0529 52.4856 55.9421 45.6311 60.2081C45.8983 52.139 48.1288 44.224 52.1259 37.1973C56.969 34.3804 61.3942 30.7473 65.174 26.3589C63.2635 31.8265 62.3297 37.4753 62.3117 43.078ZM45.6062 62.3367C52.3458 58.3473 58.0972 52.8649 62.405 46.345C62.8757 54.1453 65.1153 61.7689 68.9572 68.5937C64.8965 75.471 59.1207 81.459 51.8192 85.8515C47.6922 78.3967 45.6843 70.323 45.6062 62.3367ZM43.8001 61.2939C43.8853 53.4626 45.7575 45.7406 49.25 38.75C42.2593 42.2425 34.5373 44.1147 26.7059 44.1999C22.7805 51.1552 20.4826 59.1511 20.3293 67.6706C28.8488 67.5173 36.8447 65.2195 43.8001 61.2939ZM27.7917 42.3689C35.8609 42.1017 43.776 39.8712 50.8027 35.8741C53.6196 31.031 57.2527 26.6059 61.6411 22.826C56.1734 24.7366 50.5245 25.6704 44.9217 25.6883C37.9469 29.7751 32.0577 35.5144 27.7917 42.3689ZM44.4374 23.8808C36.3536 23.829 28.3838 21.8032 21.2621 18C28.3839 14.1968 36.354 12.1709 44.4379 12.1192C49.2989 14.905 54.6578 16.9206 60.3481 17.9999C54.6576 19.0791 49.2986 21.0949 44.4374 23.8808ZM48.6085 23.7318C53.9631 21.1733 59.8476 19.5455 66.0525 19.0577C60.435 21.7377 54.525 23.2702 48.6085 23.7318ZM41.6548 25.595C35.1349 29.9029 29.6526 35.6542 25.6632 42.3938C17.6769 42.3157 9.60326 40.3078 2.14849 36.1808C6.54101 28.8793 12.529 23.1035 19.4063 19.0428C26.231 22.8847 33.8545 25.1243 41.6548 25.595ZM77.595 46.3448C81.9028 52.8648 87.6542 58.3472 94.3938 62.3366C94.3158 70.323 92.3078 78.3967 88.1808 85.8515C80.8793 81.459 75.1035 75.471 71.0428 68.5937C74.8847 61.7689 77.1244 54.1452 77.595 46.3448ZM98.3449 10.405C104.865 6.09716 110.347 0.345791 114.337 -6.39378C122.323 -6.31572 130.397 -4.3078 137.852 -0.180763C133.459 7.12074 127.471 12.8965 120.594 16.9572C113.769 13.1153 106.145 10.8756 98.3449 10.405ZM85.6594 2.34061C80.7666 5.69849 76.4149 9.98046 72.8901 15.1099C78.0195 11.5851 82.3015 7.23339 85.6594 2.34061ZM85.6595 33.6595C82.3016 28.7666 78.0195 24.4148 72.89 20.89C76.4148 26.0195 80.7666 30.3016 85.6595 33.6595ZM67.11 20.89C63.5852 26.0195 59.2334 30.3016 54.3405 33.6595C57.6984 28.7666 61.9805 24.4148 67.11 20.89ZM67.1099 15.1099C61.9805 11.5851 57.6985 7.23339 54.3406 2.34061C59.2334 5.69848 63.5852 9.98046 67.1099 15.1099Z" fill="url(#paint0_linear_952_912)"/>
<defs>
<linearGradient id="paint0_linear_952_912" x1="41.204" y1="56.1605" x2="90.8361" y2="-0.0267533" gradientUnits="userSpaceOnUse">
<stop stop-color="white"/>
<stop offset="1" stop-color="white" stop-opacity="0.15"/>
</linearGradient>
</defs>
</svg>
