<svg xmlns="http://www.w3.org/2000/svg" xmlns:xlink="http://www.w3.org/1999/xlink" version="1.1" x="0px" y="0px"
     viewBox="0 0 100 125" style="enable-background:new 0 0 100 100;" xml:space="preserve"><g><path d="M82.6,51.6c0-0.9,0.7-1.6,1.6-1.6c0.9,0,1.6,0.7,1.6,1.6v4.2h-3.1V51.6z M82.6,61.8c0-0.9,0.7-1.6,1.6-1.6   c0.9,0,1.6,0.7,1.6,1.6V66h-3.1V61.8z M82.6,72c0-0.9,0.7-1.6,1.6-1.6c0.9,0,1.6,0.7,1.6,1.6v4.2h-3.1V72z M87.5,51.6   c0-0.9,0.7-1.6,1.6-1.6c0.9,0,1.6,0.7,1.6,1.6v4.2h-3.1V51.6z M87.5,61.8c0-0.9,0.7-1.6,1.6-1.6c0.9,0,1.6,0.7,1.6,1.6V66h-3.1   V61.8z M87.5,72c0-0.9,0.7-1.6,1.6-1.6c0.9,0,1.6,0.7,1.6,1.6v4.2h-3.1V72z M77.3,47.4h-0.1v33.5h2h13.3h3.8V46.3H77.9l0.1,1   L77.3,47.4L77.3,47.4z M37.4,85.1l-3,3.1h30.7l-3-3.1H37.4z M60.8,74.1h-1.4H38.1v10.3h7.1v-5.5c0-1.6,1.1-3.1,2.6-3.7   c0.6-0.3,1.2-0.4,1.9-0.4c0,0,0,0,0,0c0,0,0,0,0,0c2.5,0,4.6,1.8,4.6,4.1v5.5h7.2V74.1H60.8z M55.3,49.1h-2v-9.2c0-0.6,0.5-1,1-1   c0.6,0,1,0.5,1,1V49.1z M52.7,53.2c1.1,0,2,0.9,2,2v5.3h-4.1v-5.3C50.7,54.1,51.6,53.2,52.7,53.2 M50.7,49.1h-2v-9.2   c0-0.6,0.5-1,1-1s1,0.5,1,1V49.1z M48.8,55.2v5.3h-4.1v-5.3c0-1.1,0.9-2,2-2C47.9,53.2,48.8,54.1,48.8,55.2 M46.2,49.1h-2v-9.2   c0-0.6,0.5-1,1-1c0.6,0,1,0.5,1,1V49.1z M44.7,65.4c0-1.1,0.9-2,2-2c1.1,0,2,0.9,2,2v5.3h-4.1V65.4z M50.7,65.4c0-1.1,0.9-2,2-2   c1.1,0,2,0.9,2,2v5.3h-4.1V65.4z M59.4,73.3L59.4,73.3l0.1-37.1h-9.7H40v37.1H59.4z M49.6,76.2c-1.6,0.1-2.9,1.6-2.9,3.4v4.4v0.4   h2.9V76.2z M52.9,79.5c0-1.8-1.3-3.2-2.9-3.4v8.2h2.9v-0.4V79.5z M17.1,76.2H14V72c0-0.9,0.7-1.6,1.6-1.6c0.9,0,1.6,0.7,1.6,1.6   V76.2z M17.1,66H14v-4.2c0-0.9,0.7-1.6,1.6-1.6c0.9,0,1.6,0.7,1.6,1.6V66z M17.1,55.8H14v-4.2c0-0.9,0.7-1.6,1.6-1.6   c0.9,0,1.6,0.7,1.6,1.6V55.8z M12.2,76.2H9.1V72c0-0.9,0.7-1.6,1.6-1.6c0.9,0,1.6,0.7,1.6,1.6V76.2z M12.2,66H9.1v-4.2   c0-0.9,0.7-1.6,1.6-1.6c0.9,0,1.6,0.7,1.6,1.6V66z M12.2,55.8H9.1v-4.2c0-0.9,0.7-1.6,1.6-1.6c0.9,0,1.6,0.7,1.6,1.6V55.8z    M21.6,46.3H3.8v34.5H7h13.3h2V47.3h-0.7L21.6,46.3z M21.8,45.3l0.7-4.3H4.1L1,45.3h2.1h0.6H21.8z M34.8,79.7h-3.1v-4.2   c0-0.9,0.7-1.6,1.6-1.6c0.9,0,1.6,0.7,1.6,1.6V79.7z M34.8,69.5h-3.1v-4.2c0-0.9,0.7-1.6,1.6-1.6c0.9,0,1.6,0.7,1.6,1.6V69.5z    M34.8,59.2h-3.1V55c0-0.9,0.7-1.6,1.6-1.6c0.9,0,1.6,0.7,1.6,1.6V59.2z M34.8,49.1h-3.1v-5.5c0-0.9,0.7-1.6,1.6-1.6   c0.9,0,1.6,0.7,1.6,1.6V49.1z M30.3,79.7h-3.1v-4.2c0-0.9,0.7-1.6,1.6-1.6s1.6,0.7,1.6,1.6V79.7z M30.3,69.5h-3.1v-4.2   c0-0.9,0.7-1.6,1.6-1.6s1.6,0.7,1.6,1.6V69.5z M30.3,59.2h-3.1V55c0-0.9,0.7-1.6,1.6-1.6s1.6,0.7,1.6,1.6V59.2z M30.3,49.1h-3.1   v-5.5c0-0.9,0.7-1.6,1.6-1.6s1.6,0.7,1.6,1.6V49.1z M39.1,36.6H23.8l-1.3,9.7h3.8v1H23v34.4h-0.6v0.6h2.7H37h0.3v-8.2v-0.3v-0.5   h1.9v-26h-3.4v-1h3.4V36.6z M50.4,14.7l5.1-1.3l-5.1-1.3V14.7z M49.7,25.4h9.8l-7.3-7.7H50c0,0,0-0.1,0-0.1v-0.2v-0.6V16v-1.7v0   v-1.1c0-0.3,0-0.6,0-0.9c0-0.3-0.3-0.5-0.3-0.5s-0.2,0.2-0.3,0.5c0,0.3,0,0.6,0,0.9v1.1v0V16v0.7v0.6v0.2c0,0,0,0.1,0,0.1h-2.3   l-7.3,7.7H49.7z M52.5,30c0,1.5-1.3,2.8-2.8,2.8s-2.8-1.3-2.8-2.8c0-0.8,0.3-1.5,0.8-2c0.5-0.5,1.2-0.8,2-0.8s1.5,0.3,2,0.8   S52.5,29.2,52.5,30 M59.5,26.2h-9.7H40v7.4h9.8h9.7V26.2z M49.7,35.3h12.6v-0.8H49.7H37.1v0.8H49.7z M72.3,79.7h-3.1v-4.2   c0-0.9,0.7-1.6,1.6-1.6c0.9,0,1.6,0.7,1.6,1.6V79.7z M72.3,69.5h-3.1v-4.2c0-0.9,0.7-1.6,1.6-1.6c0.9,0,1.6,0.7,1.6,1.6V69.5z    M72.3,59.2h-3.1V55c0-0.9,0.7-1.6,1.6-1.6c0.9,0,1.6,0.7,1.6,1.6V59.2z M72.3,49.1h-3.1v-5.5c0-0.9,0.7-1.6,1.6-1.6   c0.9,0,1.6,0.7,1.6,1.6V49.1z M67.8,79.7h-3.1v-4.2c0-0.9,0.7-1.6,1.6-1.6c0.9,0,1.6,0.7,1.6,1.6V79.7z M67.8,69.5h-3.1v-4.2   c0-0.9,0.7-1.6,1.6-1.6c0.9,0,1.6,0.7,1.6,1.6V69.5z M67.8,59.2h-3.1V55c0-0.9,0.7-1.6,1.6-1.6c0.9,0,1.6,0.7,1.6,1.6V59.2z    M67.8,49.1h-3.1v-5.5c0-0.9,0.7-1.6,1.6-1.6c0.9,0,1.6,0.7,1.6,1.6V49.1z M74.4,82.3H77v-0.6h-0.6V47.3h-3.2v-1H77l-1.3-9.7H60.3   v9.7h3.4v1h-3.4v26h1.9v0.5v0.3v8.2h0.3H74.4z M99,45.3L95.9,41H77.1l0.7,4.3h18.4h0.6H99z"/></g>
    </svg>
