<svg width="25" height="24" viewBox="0 0 25 24" fill="none" xmlns="http://www.w3.org/2000/svg">
<path d="M9.65905 11.62H9.57905C9.51947 11.61 9.45863 11.61 9.39905 11.62C6.49905 11.53 4.30905 9.25 4.30905 6.44C4.30905 3.58 6.63905 1.25 9.49905 1.25C12.359 1.25 14.6891 3.58 14.6891 6.44C14.6791 9.25 12.4791 11.53 9.68905 11.62H9.65905ZM9.49905 2.75C8.52121 2.75264 7.58418 3.14225 6.89274 3.83369C6.2013 4.52513 5.81169 5.46216 5.80905 6.44C5.80905 8.44 7.36905 10.05 9.35905 10.12C9.41905 10.11 9.54905 10.11 9.67905 10.12C11.6391 10.03 13.1791 8.42 13.1891 6.44C13.1864 5.46216 12.7968 4.52513 12.1054 3.83369C11.4139 3.14225 10.4769 2.75264 9.49905 2.75ZM17.0381 11.75C17.0081 11.75 16.9781 11.75 16.9481 11.74C16.5381 11.78 16.1181 11.49 16.0781 11.08C16.0381 10.67 16.2881 10.3 16.6981 10.25C16.8181 10.24 16.9481 10.24 17.0581 10.24C18.5181 10.16 19.6581 8.96 19.6581 7.49C19.6581 5.97 18.4281 4.74 16.9081 4.74C16.81 4.74132 16.7127 4.72316 16.6218 4.68657C16.5309 4.64997 16.4481 4.59567 16.3783 4.52683C16.3085 4.45798 16.2531 4.37595 16.2153 4.28551C16.1775 4.19508 16.158 4.09803 16.1581 4C16.1581 3.59 16.4981 3.25 16.9081 3.25C18.0344 3.25264 19.1139 3.70126 19.9103 4.49771C20.7068 5.29417 21.1554 6.37364 21.1581 7.5C21.1581 9.8 19.3581 11.66 17.0681 11.75H17.0381ZM9.67205 22.55C7.71205 22.55 5.74205 22.05 4.25205 21.05C2.86205 20.13 2.10205 18.87 2.10205 17.5C2.10205 16.13 2.86205 14.86 4.25205 13.93C7.25205 11.94 12.1121 11.94 15.0921 13.93C16.4721 14.85 17.2421 16.11 17.2421 17.48C17.2421 18.85 16.4821 20.12 15.0921 21.05C13.5921 22.05 11.6321 22.55 9.67205 22.55ZM5.08205 15.19C4.12205 15.83 3.60205 16.65 3.60205 17.51C3.60205 18.36 4.13205 19.18 5.08205 19.81C7.57205 21.48 11.7721 21.48 14.2621 19.81C15.2221 19.17 15.7421 18.35 15.7421 17.49C15.7421 16.64 15.2121 15.82 14.2621 15.19C11.7721 13.53 7.57205 13.53 5.08205 15.19ZM18.8381 20.75C18.4881 20.75 18.1781 20.51 18.1081 20.15C18.0693 19.9553 18.1083 19.7532 18.2167 19.5868C18.3251 19.4205 18.4943 19.3032 18.6881 19.26C19.3181 19.13 19.8981 18.88 20.3481 18.53C20.9181 18.1 21.2281 17.56 21.2281 16.99C21.2281 16.42 20.9181 15.88 20.3581 15.46C19.9181 15.12 19.3681 14.88 18.7181 14.73C18.5235 14.6856 18.3544 14.5661 18.2476 14.3975C18.1408 14.2289 18.105 14.0249 18.1481 13.83C18.2381 13.43 18.6381 13.17 19.0481 13.26C19.9081 13.45 20.6581 13.79 21.2681 14.26C22.1981 14.96 22.7281 15.95 22.7281 16.99C22.7281 18.03 22.1881 19.02 21.2581 19.73C20.6381 20.21 19.8581 20.56 18.9981 20.73C18.9381 20.75 18.8881 20.75 18.8381 20.75Z" fill="#889BAF"/>
</svg>
