<svg width="37" height="39" viewBox="0 0 37 39" fill="none" xmlns="http://www.w3.org/2000/svg">
<path d="M15.6591 11.62H15.5791C15.5195 11.61 15.4586 11.61 15.3991 11.62C12.4991 11.53 10.3091 9.25 10.3091 6.44C10.3091 3.58 12.6391 1.25 15.4991 1.25C18.359 1.25 20.6891 3.58 20.6891 6.44C20.6791 9.25 18.4791 11.53 15.6891 11.62H15.6591ZM15.4991 2.75C14.5212 2.75264 13.5842 3.14225 12.8927 3.83369C12.2013 4.52513 11.8117 5.46216 11.8091 6.44C11.8091 8.44 13.3691 10.05 15.3591 10.12C15.4191 10.11 15.5491 10.11 15.6791 10.12C17.6391 10.03 19.1791 8.42 19.1891 6.44C19.1864 5.46216 18.7968 4.52513 18.1054 3.83369C17.4139 3.14225 16.4769 2.75264 15.4991 2.75ZM23.0381 11.75C23.0081 11.75 22.9781 11.75 22.9481 11.74C22.5381 11.78 22.1181 11.49 22.0781 11.08C22.0381 10.67 22.2881 10.3 22.6981 10.25C22.8181 10.24 22.9481 10.24 23.0581 10.24C24.5181 10.16 25.6581 8.96 25.6581 7.49C25.6581 5.97 24.4281 4.74 22.9081 4.74C22.81 4.74132 22.7127 4.72316 22.6218 4.68657C22.5309 4.64997 22.4481 4.59567 22.3783 4.52683C22.3085 4.45798 22.2531 4.37595 22.2153 4.28551C22.1775 4.19508 22.158 4.09803 22.1581 4C22.1581 3.59 22.4981 3.25 22.9081 3.25C24.0344 3.25264 25.1139 3.70126 25.9103 4.49771C26.7068 5.29417 27.1554 6.37364 27.1581 7.5C27.1581 9.8 25.3581 11.66 23.0681 11.75H23.0381ZM15.6721 22.55C13.7121 22.55 11.7421 22.05 10.2521 21.05C8.86205 20.13 8.10205 18.87 8.10205 17.5C8.10205 16.13 8.86205 14.86 10.2521 13.93C13.2521 11.94 18.1121 11.94 21.0921 13.93C22.4721 14.85 23.2421 16.11 23.2421 17.48C23.2421 18.85 22.4821 20.12 21.0921 21.05C19.5921 22.05 17.6321 22.55 15.6721 22.55ZM11.0821 15.19C10.1221 15.83 9.60205 16.65 9.60205 17.51C9.60205 18.36 10.1321 19.18 11.0821 19.81C13.5721 21.48 17.7721 21.48 20.2621 19.81C21.2221 19.17 21.7421 18.35 21.7421 17.49C21.7421 16.64 21.2121 15.82 20.2621 15.19C17.7721 13.53 13.5721 13.53 11.0821 15.19ZM24.8381 20.75C24.4881 20.75 24.1781 20.51 24.1081 20.15C24.0693 19.9553 24.1083 19.7532 24.2167 19.5868C24.3251 19.4205 24.4943 19.3032 24.6881 19.26C25.3181 19.13 25.8981 18.88 26.3481 18.53C26.9181 18.1 27.2281 17.56 27.2281 16.99C27.2281 16.42 26.9181 15.88 26.3581 15.46C25.9181 15.12 25.3681 14.88 24.7181 14.73C24.5235 14.6856 24.3544 14.5661 24.2476 14.3975C24.1408 14.2289 24.105 14.0249 24.1481 13.83C24.2381 13.43 24.6381 13.17 25.0481 13.26C25.9081 13.45 26.6581 13.79 27.2681 14.26C28.1981 14.96 28.7281 15.95 28.7281 16.99C28.7281 18.03 28.1881 19.02 27.2581 19.73C26.6381 20.21 25.8581 20.56 24.9981 20.73C24.9381 20.75 24.8881 20.75 24.8381 20.75Z" fill="#889BAF"/>
<path d="M5.63414 34.08H7.98414V35H4.49414V28.05H5.63414V34.08ZM13.9875 32.11C13.9875 32.3167 13.9742 32.5033 13.9475 32.67H9.7375C9.77083 33.11 9.93417 33.4633 10.2275 33.73C10.5208 33.9967 10.8808 34.13 11.3075 34.13C11.9208 34.13 12.3542 33.8733 12.6075 33.36H13.8375C13.6708 33.8667 13.3675 34.2833 12.9275 34.61C12.4942 34.93 11.9542 35.09 11.3075 35.09C10.7808 35.09 10.3075 34.9733 9.8875 34.74C9.47417 34.5 9.1475 34.1667 8.9075 33.74C8.67417 33.3067 8.5575 32.8067 8.5575 32.24C8.5575 31.6733 8.67083 31.1767 8.8975 30.75C9.13083 30.3167 9.45417 29.9833 9.8675 29.75C10.2875 29.5167 10.7675 29.4 11.3075 29.4C11.8275 29.4 12.2908 29.5133 12.6975 29.74C13.1042 29.9667 13.4208 30.2867 13.6475 30.7C13.8742 31.1067 13.9875 31.5767 13.9875 32.11ZM12.7975 31.75C12.7908 31.33 12.6408 30.9933 12.3475 30.74C12.0542 30.4867 11.6908 30.36 11.2575 30.36C10.8642 30.36 10.5275 30.4867 10.2475 30.74C9.9675 30.9867 9.80083 31.3233 9.7475 31.75H12.7975ZM14.7294 32.22C14.7294 31.6667 14.8427 31.1767 15.0694 30.75C15.3027 30.3233 15.616 29.9933 16.0094 29.76C16.4094 29.52 16.8494 29.4 17.3294 29.4C17.7627 29.4 18.1394 29.4867 18.4594 29.66C18.786 29.8267 19.046 30.0367 19.2394 30.29V29.49H20.3894V35H19.2394V34.18C19.046 34.44 18.7827 34.6567 18.4494 34.83C18.116 35.0033 17.736 35.09 17.3094 35.09C16.836 35.09 16.4027 34.97 16.0094 34.73C15.616 34.4833 15.3027 34.1433 15.0694 33.71C14.8427 33.27 14.7294 32.7733 14.7294 32.22ZM19.2394 32.24C19.2394 31.86 19.1594 31.53 18.9994 31.25C18.846 30.97 18.6427 30.7567 18.3894 30.61C18.136 30.4633 17.8627 30.39 17.5694 30.39C17.276 30.39 17.0027 30.4633 16.7494 30.61C16.496 30.75 16.2894 30.96 16.1294 31.24C15.976 31.5133 15.8994 31.84 15.8994 32.22C15.8994 32.6 15.976 32.9333 16.1294 33.22C16.2894 33.5067 16.496 33.7267 16.7494 33.88C17.0094 34.0267 17.2827 34.1 17.5694 34.1C17.8627 34.1 18.136 34.0267 18.3894 33.88C18.6427 33.7333 18.846 33.52 18.9994 33.24C19.1594 32.9533 19.2394 32.62 19.2394 32.24ZM21.5067 32.22C21.5067 31.6667 21.6201 31.1767 21.8467 30.75C22.0801 30.3233 22.3934 29.9933 22.7867 29.76C23.1867 29.52 23.6301 29.4 24.1167 29.4C24.4767 29.4 24.8301 29.48 25.1767 29.64C25.5301 29.7933 25.8101 30 26.0167 30.26V27.6H27.1667V35H26.0167V34.17C25.8301 34.4367 25.5701 34.6567 25.2367 34.83C24.9101 35.0033 24.5334 35.09 24.1067 35.09C23.6267 35.09 23.1867 34.97 22.7867 34.73C22.3934 34.4833 22.0801 34.1433 21.8467 33.71C21.6201 33.27 21.5067 32.7733 21.5067 32.22ZM26.0167 32.24C26.0167 31.86 25.9367 31.53 25.7767 31.25C25.6234 30.97 25.4201 30.7567 25.1667 30.61C24.9134 30.4633 24.6401 30.39 24.3467 30.39C24.0534 30.39 23.7801 30.4633 23.5267 30.61C23.2734 30.75 23.0667 30.96 22.9067 31.24C22.7534 31.5133 22.6767 31.84 22.6767 32.22C22.6767 32.6 22.7534 32.9333 22.9067 33.22C23.0667 33.5067 23.2734 33.7267 23.5267 33.88C23.7867 34.0267 24.0601 34.1 24.3467 34.1C24.6401 34.1 24.9134 34.0267 25.1667 33.88C25.4201 33.7333 25.6234 33.52 25.7767 33.24C25.9367 32.9533 26.0167 32.62 26.0167 32.24ZM30.6641 35.09C30.2307 35.09 29.8407 35.0133 29.4941 34.86C29.1541 34.7 28.8841 34.4867 28.6841 34.22C28.4841 33.9467 28.3774 33.6433 28.3641 33.31H29.5441C29.5641 33.5433 29.6741 33.74 29.8741 33.9C30.0807 34.0533 30.3374 34.13 30.6441 34.13C30.9641 34.13 31.2107 34.07 31.3841 33.95C31.5641 33.8233 31.6541 33.6633 31.6541 33.47C31.6541 33.2633 31.5541 33.11 31.3541 33.01C31.1607 32.91 30.8507 32.8 30.4241 32.68C30.0107 32.5667 29.6741 32.4567 29.4141 32.35C29.1541 32.2433 28.9274 32.08 28.7341 31.86C28.5474 31.64 28.4541 31.35 28.4541 30.99C28.4541 30.6967 28.5407 30.43 28.7141 30.19C28.8874 29.9433 29.1341 29.75 29.4541 29.61C29.7807 29.47 30.1541 29.4 30.5741 29.4C31.2007 29.4 31.7041 29.56 32.0841 29.88C32.4707 30.1933 32.6774 30.6233 32.7041 31.17H31.5641C31.5441 30.9233 31.4441 30.7267 31.2641 30.58C31.0841 30.4333 30.8407 30.36 30.5341 30.36C30.2341 30.36 30.0041 30.4167 29.8441 30.53C29.6841 30.6433 29.6041 30.7933 29.6041 30.98C29.6041 31.1267 29.6574 31.25 29.7641 31.35C29.8707 31.45 30.0007 31.53 30.1541 31.59C30.3074 31.6433 30.5341 31.7133 30.8341 31.8C31.2341 31.9067 31.5607 32.0167 31.8141 32.13C32.0741 32.2367 32.2974 32.3967 32.4841 32.61C32.6707 32.8233 32.7674 33.1067 32.7741 33.46C32.7741 33.7733 32.6874 34.0533 32.5141 34.3C32.3407 34.5467 32.0941 34.74 31.7741 34.88C31.4607 35.02 31.0907 35.09 30.6641 35.09Z" fill="#889BAF"/>
</svg>
