<svg width="56" height="61" viewBox="0 0 56 61" fill="none" xmlns="http://www.w3.org/2000/svg">
<path fill-rule="evenodd" clip-rule="evenodd" d="M29.7289 59.817C49.0528 53.5861 35.1792 46.4265 35.1792 29.9085C35.1792 13.3905 46.1478 0 29.7289 0C13.3101 0 0 13.3905 0 29.9085C0 46.4265 10.4051 66.048 29.7289 59.817Z" fill="#00B19F1A"/>
<path d="M25.8896 19.3333C26.4142 19.3333 26.8271 19.7568 26.8271 20.2708V25.5989C26.8271 26.1365 26.4099 26.556 25.8896 26.556C25.3652 26.556 24.9522 26.1324 24.9521 25.6185V20.2708C24.9521 19.7568 25.3651 19.3333 25.8896 19.3333Z" fill="#00b19f" stroke="#00b19f"/>
<path d="M40.1104 27.0558C39.3054 27.0558 38.6729 26.4041 38.6729 25.6183V20.2708C38.6729 19.4658 39.3245 18.8333 40.1104 18.8333C40.9154 18.8333 41.5478 19.485 41.5478 20.2708V25.5991C41.5478 26.4041 40.9154 27.0558 40.1104 27.0558Z" fill="#00b19f"/>
<path d="M47.5095 23.625C46.2445 22.6858 44.4237 23.5866 44.4237 25.1775V25.3691C44.4237 27.6116 42.8137 29.6816 40.5712 29.9116C37.9837 30.18 35.7987 28.1483 35.7987 25.6183V23.625C35.7987 22.5708 34.9362 21.7083 33.882 21.7083H32.1187C31.0645 21.7083 30.202 22.5708 30.202 23.625V25.6183C30.202 27.1325 29.4162 28.4741 28.2278 29.2216C28.0553 29.3366 27.8637 29.4325 27.672 29.5283C27.4995 29.6241 27.3078 29.7008 27.097 29.7583C26.867 29.835 26.6178 29.8925 26.3495 29.9116C26.0428 29.95 25.7362 29.95 25.4295 29.9116C25.1612 29.8925 24.912 29.835 24.682 29.7583C24.4903 29.7008 24.2987 29.6241 24.107 29.5283C23.9153 29.4325 23.7237 29.3366 23.5512 29.2216C22.3437 28.3783 21.577 26.9216 21.577 25.3691V25.1775C21.577 23.7016 20.0053 22.82 18.7595 23.4525C18.7403 23.4716 18.7212 23.4716 18.702 23.4908C18.6253 23.5291 18.5678 23.5675 18.4912 23.625C18.4337 23.6825 18.357 23.7208 18.2995 23.7783C17.7628 24.2 17.2837 24.6791 16.8812 25.1966C16.6703 25.4266 16.4978 25.6758 16.3445 25.925C16.3253 25.9441 16.3062 25.9633 16.287 26.0016C16.1145 26.2508 15.9612 26.5383 15.827 26.8066C15.7887 26.845 15.7695 26.8641 15.7695 26.9025C15.6545 27.1325 15.5395 27.3625 15.4628 27.6116C15.4053 27.7075 15.3862 27.7841 15.3478 27.88C15.2328 28.1675 15.1562 28.455 15.0795 28.7425C15.0028 29.0108 14.9453 29.2983 14.907 29.5858C14.8687 29.7966 14.8495 30.0075 14.8303 30.2375C14.8112 30.5058 14.792 30.7741 14.792 31.0425V47.8325C14.792 52.9883 18.9703 57.1666 24.1262 57.1666H41.8745C47.0303 57.1666 51.2087 52.9883 51.2087 47.8325V31.0425C51.2087 27.995 49.752 25.3308 47.5095 23.625ZM33.0003 48.3883H24.107C23.3212 48.3883 22.6695 47.7366 22.6695 46.9508C22.6695 46.1458 23.3212 45.4941 24.107 45.4941H33.0003C33.8053 45.4941 34.4378 46.1458 34.4378 46.9508C34.4378 47.7366 33.8053 48.3883 33.0003 48.3883ZM38.3287 41.2775H24.107C23.3212 41.2775 22.6695 40.6258 22.6695 39.84C22.6695 39.035 23.3212 38.3833 24.107 38.3833H38.3287C39.1337 38.3833 39.7853 39.035 39.7853 39.84C39.7853 40.6258 39.1337 41.2775 38.3287 41.2775Z" fill="#00b19f"/>
</svg>
