<svg width="57" height="39" viewBox="0 0 57 39" fill="none" xmlns="http://www.w3.org/2000/svg">
<path d="M33.95 22.75C32.82 22.75 31.63 22.48 30.4 21.96C29.2 21.45 27.99 20.75 26.81 19.9C25.64 19.04 24.51 18.08 23.44 17.03C22.38 15.96 21.42 14.83 20.57 13.67C19.71 12.47 19.02 11.27 18.53 10.11C18.01 8.87 17.75 7.67 17.75 6.54C17.75 5.76 17.89 5.02 18.16 4.33C18.44 3.62 18.89 2.96 19.5 2.39C20.27 1.63 21.15 1.25 22.09 1.25C22.48 1.25 22.88 1.34 23.22 1.5C23.61 1.68 23.94 1.95 24.18 2.31L26.5 5.58C26.71 5.87 26.87 6.15 26.98 6.43C27.11 6.73 27.18 7.03 27.18 7.32C27.18 7.7 27.07 8.07 26.86 8.42C26.6762 8.73238 26.4508 9.01833 26.19 9.27L25.51 9.98C25.52 10.01 25.53 10.03 25.54 10.05C25.66 10.26 25.9 10.62 26.36 11.16C26.85 11.72 27.31 12.23 27.77 12.7C28.36 13.28 28.85 13.74 29.31 14.12C29.88 14.6 30.25 14.84 30.47 14.95L30.45 15L31.18 14.28C31.49 13.97 31.79 13.74 32.08 13.59C32.63 13.25 33.33 13.19 34.03 13.48C34.29 13.59 34.57 13.74 34.87 13.95L38.19 16.31C38.56 16.56 38.83 16.88 38.99 17.26C39.14 17.64 39.21 17.99 39.21 18.34C39.21 18.82 39.1 19.3 38.89 19.75C38.68 20.2 38.42 20.59 38.09 20.95C37.52 21.58 36.9 22.03 36.18 22.32C35.49 22.6 34.74 22.75 33.95 22.75ZM22.09 2.75C21.54 2.75 21.03 2.99 20.54 3.47C20.08 3.9 19.76 4.37 19.56 4.88C19.35 5.4 19.25 5.95 19.25 6.54C19.25 7.47 19.47 8.48 19.91 9.52C20.36 10.58 20.99 11.68 21.79 12.78C22.59 13.88 23.5 14.95 24.5 15.96C25.5 16.95 26.58 17.87 27.69 18.68C28.77 19.47 29.88 20.11 30.98 20.57C32.69 21.3 34.29 21.47 35.61 20.92C36.12 20.71 36.57 20.39 36.98 19.93C37.21 19.68 37.39 19.41 37.54 19.09C37.66 18.84 37.72 18.58 37.72 18.32C37.72 18.16 37.69 18 37.61 17.82C37.5461 17.6961 37.4492 17.5923 37.33 17.52L34.01 15.16C33.81 15.02 33.63 14.92 33.46 14.85C33.24 14.76 33.15 14.67 32.81 14.88C32.61 14.98 32.43 15.13 32.23 15.33L31.47 16.08C31.08 16.46 30.48 16.55 30.02 16.38L29.75 16.26C29.34 16.04 28.86 15.7 28.33 15.25C27.85 14.84 27.33 14.36 26.7 13.74C26.21 13.24 25.72 12.71 25.21 12.12C24.74 11.57 24.4 11.1 24.19 10.71L24.07 10.41C24.01 10.18 23.99 10.05 23.99 9.91C23.99 9.55 24.12 9.23 24.37 8.98L25.12 8.2C25.32 8 25.47 7.81 25.57 7.64C25.65 7.51 25.68 7.4 25.68 7.3C25.68 7.22 25.65 7.1 25.6 6.98C25.53 6.82 25.42 6.64 25.28 6.45L22.96 3.17C22.8664 3.03564 22.7387 2.92864 22.59 2.86C22.43 2.79 22.26 2.75 22.09 2.75ZM30.45 15.01L30.29 15.69L30.56 14.99C30.51 14.98 30.47 14.99 30.45 15.01ZM35 9.75C34.59 9.75 34.25 9.41 34.25 9C34.25 8.64 33.89 7.89 33.29 7.25C32.7 6.62 32.05 6.25 31.5 6.25C31.09 6.25 30.75 5.91 30.75 5.5C30.75 5.09 31.09 4.75 31.5 4.75C32.47 4.75 33.49 5.27 34.38 6.22C35.21 7.11 35.75 8.2 35.75 9C35.75 9.41 35.41 9.75 35 9.75ZM38.5 9.75C38.09 9.75 37.75 9.41 37.75 9C37.75 5.55 34.95 2.75 31.5 2.75C31.09 2.75 30.75 2.41 30.75 2C30.75 1.59 31.09 1.25 31.5 1.25C35.77 1.25 39.25 4.73 39.25 9C39.25 9.41 38.91 9.75 38.5 9.75Z" fill="#889BAF"/>
<path d="M11.8496 35H10.7096L7.27965 29.81V35H6.13965V28.04H7.27965L10.7096 33.22V28.04H11.8496V35ZM18.3367 29.49V35H17.1967V34.35C17.0167 34.5767 16.78 34.7567 16.4867 34.89C16.2 35.0167 15.8933 35.08 15.5667 35.08C15.1333 35.08 14.7433 34.99 14.3967 34.81C14.0567 34.63 13.7867 34.3633 13.5867 34.01C13.3933 33.6567 13.2967 33.23 13.2967 32.73V29.49H14.4267V32.56C14.4267 33.0533 14.55 33.4333 14.7967 33.7C15.0433 33.96 15.38 34.09 15.8067 34.09C16.2333 34.09 16.57 33.96 16.8167 33.7C17.07 33.4333 17.1967 33.0533 17.1967 32.56V29.49H18.3367ZM26.5108 29.4C26.9442 29.4 27.3308 29.49 27.6708 29.67C28.0175 29.85 28.2875 30.1167 28.4808 30.47C28.6808 30.8233 28.7808 31.25 28.7808 31.75V35H27.6508V31.92C27.6508 31.4267 27.5275 31.05 27.2808 30.79C27.0342 30.5233 26.6975 30.39 26.2708 30.39C25.8442 30.39 25.5042 30.5233 25.2508 30.79C25.0042 31.05 24.8808 31.4267 24.8808 31.92V35H23.7508V31.92C23.7508 31.4267 23.6275 31.05 23.3808 30.79C23.1342 30.5233 22.7975 30.39 22.3708 30.39C21.9442 30.39 21.6042 30.5233 21.3508 30.79C21.1042 31.05 20.9808 31.4267 20.9808 31.92V35H19.8408V29.49H20.9808V30.12C21.1675 29.8933 21.4042 29.7167 21.6908 29.59C21.9775 29.4633 22.2842 29.4 22.6108 29.4C23.0508 29.4 23.4442 29.4933 23.7908 29.68C24.1375 29.8667 24.4042 30.1367 24.5908 30.49C24.7575 30.1567 25.0175 29.8933 25.3708 29.7C25.7242 29.5 26.1042 29.4 26.5108 29.4ZM31.3714 30.31C31.5648 30.0433 31.8281 29.8267 32.1614 29.66C32.5014 29.4867 32.8781 29.4 33.2914 29.4C33.7781 29.4 34.2181 29.5167 34.6114 29.75C35.0048 29.9833 35.3148 30.3167 35.5414 30.75C35.7681 31.1767 35.8814 31.6667 35.8814 32.22C35.8814 32.7733 35.7681 33.27 35.5414 33.71C35.3148 34.1433 35.0014 34.4833 34.6014 34.73C34.2081 34.97 33.7714 35.09 33.2914 35.09C32.8648 35.09 32.4848 35.0067 32.1514 34.84C31.8248 34.6733 31.5648 34.46 31.3714 34.2V35H30.2314V27.6H31.3714V30.31ZM34.7214 32.22C34.7214 31.84 34.6414 31.5133 34.4814 31.24C34.3281 30.96 34.1214 30.75 33.8614 30.61C33.6081 30.4633 33.3348 30.39 33.0414 30.39C32.7548 30.39 32.4814 30.4633 32.2214 30.61C31.9681 30.7567 31.7614 30.97 31.6014 31.25C31.4481 31.53 31.3714 31.86 31.3714 32.24C31.3714 32.62 31.4481 32.9533 31.6014 33.24C31.7614 33.52 31.9681 33.7333 32.2214 33.88C32.4814 34.0267 32.7548 34.1 33.0414 34.1C33.3348 34.1 33.6081 34.0267 33.8614 33.88C34.1214 33.7267 34.3281 33.5067 34.4814 33.22C34.6414 32.9333 34.7214 32.6 34.7214 32.22ZM42.0588 32.11C42.0588 32.3167 42.0455 32.5033 42.0188 32.67H37.8088C37.8421 33.11 38.0055 33.4633 38.2988 33.73C38.5921 33.9967 38.9521 34.13 39.3788 34.13C39.9921 34.13 40.4255 33.8733 40.6788 33.36H41.9088C41.7421 33.8667 41.4388 34.2833 40.9988 34.61C40.5655 34.93 40.0255 35.09 39.3788 35.09C38.8521 35.09 38.3788 34.9733 37.9588 34.74C37.5455 34.5 37.2188 34.1667 36.9788 33.74C36.7455 33.3067 36.6288 32.8067 36.6288 32.24C36.6288 31.6733 36.7421 31.1767 36.9688 30.75C37.2021 30.3167 37.5255 29.9833 37.9388 29.75C38.3588 29.5167 38.8388 29.4 39.3788 29.4C39.8988 29.4 40.3621 29.5133 40.7688 29.74C41.1755 29.9667 41.4921 30.2867 41.7188 30.7C41.9455 31.1067 42.0588 31.5767 42.0588 32.11ZM40.8688 31.75C40.8621 31.33 40.7121 30.9933 40.4188 30.74C40.1255 30.4867 39.7621 30.36 39.3288 30.36C38.9355 30.36 38.5988 30.4867 38.3188 30.74C38.0388 30.9867 37.8721 31.3233 37.8188 31.75H40.8688ZM44.3207 30.29C44.4873 30.01 44.7073 29.7933 44.9807 29.64C45.2607 29.48 45.5907 29.4 45.9707 29.4V30.58H45.6807C45.234 30.58 44.894 30.6933 44.6607 30.92C44.434 31.1467 44.3207 31.54 44.3207 32.1V35H43.1807V29.49H44.3207V30.29ZM49.0186 35.09C48.5852 35.09 48.1952 35.0133 47.8486 34.86C47.5086 34.7 47.2386 34.4867 47.0386 34.22C46.8386 33.9467 46.7319 33.6433 46.7186 33.31H47.8986C47.9186 33.5433 48.0286 33.74 48.2286 33.9C48.4352 34.0533 48.6919 34.13 48.9986 34.13C49.3186 34.13 49.5652 34.07 49.7386 33.95C49.9186 33.8233 50.0086 33.6633 50.0086 33.47C50.0086 33.2633 49.9086 33.11 49.7086 33.01C49.5152 32.91 49.2052 32.8 48.7786 32.68C48.3652 32.5667 48.0286 32.4567 47.7686 32.35C47.5086 32.2433 47.2819 32.08 47.0886 31.86C46.9019 31.64 46.8086 31.35 46.8086 30.99C46.8086 30.6967 46.8952 30.43 47.0686 30.19C47.2419 29.9433 47.4886 29.75 47.8086 29.61C48.1352 29.47 48.5086 29.4 48.9286 29.4C49.5552 29.4 50.0586 29.56 50.4386 29.88C50.8252 30.1933 51.0319 30.6233 51.0586 31.17H49.9186C49.8986 30.9233 49.7986 30.7267 49.6186 30.58C49.4386 30.4333 49.1952 30.36 48.8886 30.36C48.5886 30.36 48.3586 30.4167 48.1986 30.53C48.0386 30.6433 47.9586 30.7933 47.9586 30.98C47.9586 31.1267 48.0119 31.25 48.1186 31.35C48.2252 31.45 48.3552 31.53 48.5086 31.59C48.6619 31.6433 48.8886 31.7133 49.1886 31.8C49.5886 31.9067 49.9152 32.0167 50.1686 32.13C50.4286 32.2367 50.6519 32.3967 50.8386 32.61C51.0252 32.8233 51.1219 33.1067 51.1286 33.46C51.1286 33.7733 51.0419 34.0533 50.8686 34.3C50.6952 34.5467 50.4486 34.74 50.1286 34.88C49.8152 35.02 49.4452 35.09 49.0186 35.09Z" fill="#889BAF"/>
</svg>
