<svg width="22" height="23" viewBox="0 0 22 23" fill="none" xmlns="http://www.w3.org/2000/svg">
<path d="M10.0835 2.33398H8.25016C3.66683 2.33398 1.8335 4.16732 1.8335 8.75065V14.2507C1.8335 18.834 3.66683 20.6673 8.25016 20.6673H13.7502C18.3335 20.6673 20.1668 18.834 20.1668 14.2507V12.4173" stroke="#889BAF" stroke-width="1.5" stroke-linecap="round" stroke-linejoin="round"/>
<path d="M14.7032 3.26881L7.47989 10.4921C7.20489 10.7671 6.92989 11.308 6.87489 11.7021L6.48072 14.4613C6.33406 15.4605 7.03989 16.1571 8.03906 16.0196L10.7982 15.6255C11.1832 15.5705 11.7241 15.2955 12.0082 15.0205L19.2316 7.79714C20.4782 6.55048 21.0649 5.10214 19.2316 3.26881C17.3982 1.43548 15.9499 2.02214 14.7032 3.26881Z" stroke="#889BAF" stroke-width="1.5" stroke-miterlimit="10" stroke-linecap="round" stroke-linejoin="round"/>
<path d="M13.6675 4.30469C13.9714 5.38403 14.5475 6.36725 15.3404 7.16015C16.1333 7.95304 17.1165 8.52906 18.1958 8.83302" stroke="#889BAF" stroke-width="1.5" stroke-miterlimit="10" stroke-linecap="round" stroke-linejoin="round"/>
</svg>
