<svg width="28" height="29" viewBox="0 0 28 29" fill="none" xmlns="http://www.w3.org/2000/svg">
<path d="M21.1636 25.7238C20.1369 26.0272 18.9236 26.1672 17.5002 26.1672H10.5002C9.07691 26.1672 7.86358 26.0272 6.83691 25.7238C7.09358 22.6905 10.2086 20.2988 14.0002 20.2988C17.7919 20.2988 20.9069 22.6905 21.1636 25.7238Z" stroke="#178671" stroke-width="2" stroke-linecap="round" stroke-linejoin="round"/>
<path d="M17.4997 2.83398H10.4997C4.66634 2.83398 2.33301 5.16732 2.33301 11.0007V18.0007C2.33301 22.4107 3.66301 24.8257 6.83634 25.724C7.09301 22.6907 10.208 20.299 13.9997 20.299C17.7913 20.299 20.9063 22.6907 21.163 25.724C24.3363 24.8257 25.6663 22.4107 25.6663 18.0007V11.0007C25.6663 5.16732 23.333 2.83398 17.4997 2.83398ZM13.9997 17.0323C11.6897 17.0323 9.82301 15.154 9.82301 12.844C9.82301 10.534 11.6897 8.66732 13.9997 8.66732C16.3097 8.66732 18.1763 10.534 18.1763 12.844C18.1763 15.154 16.3097 17.0323 13.9997 17.0323Z" stroke="#178671" stroke-width="2" stroke-linecap="round" stroke-linejoin="round"/>
<path d="M18.1766 12.8427C18.1766 15.1527 16.3099 17.031 13.9999 17.031C11.6899 17.031 9.82324 15.1527 9.82324 12.8427C9.82324 10.5327 11.6899 8.66602 13.9999 8.66602C16.3099 8.66602 18.1766 10.5327 18.1766 12.8427Z" stroke="#178671" stroke-width="2" stroke-linecap="round" stroke-linejoin="round"/>
</svg>
