<svg width="22" height="23" viewBox="0 0 22 23" fill="none" xmlns="http://www.w3.org/2000/svg">
<path d="M20.1393 16.9692C20.1393 17.2992 20.066 17.6383 19.9102 17.9683C19.7543 18.2983 19.5527 18.61 19.2868 18.9033C18.8377 19.3983 18.3427 19.7558 17.7835 19.985C17.2335 20.2142 16.6377 20.3333 15.996 20.3333C15.061 20.3333 14.0618 20.1133 13.0077 19.6642C11.9535 19.215 10.8993 18.61 9.85433 17.8492C8.78926 17.0701 7.78421 16.2121 6.84766 15.2825C5.9207 14.3493 5.06575 13.3473 4.29016 12.285C3.5385 11.24 2.9335 10.195 2.4935 9.15917C2.0535 8.11417 1.8335 7.115 1.8335 6.16167C1.8335 5.53833 1.9435 4.9425 2.1635 4.3925C2.3835 3.83333 2.73183 3.32 3.21766 2.86167C3.80433 2.28417 4.446 2 5.12433 2C5.381 2 5.63766 2.055 5.86683 2.165C6.10516 2.275 6.316 2.44 6.481 2.67833L8.60766 5.67583C8.77266 5.905 8.89183 6.11583 8.97433 6.3175C9.05683 6.51 9.10266 6.7025 9.10266 6.87667C9.10266 7.09667 9.0385 7.31667 8.91016 7.5275C8.791 7.73833 8.61683 7.95833 8.39683 8.17833L7.70016 8.9025C7.59933 9.00333 7.5535 9.1225 7.5535 9.26917C7.5535 9.3425 7.56266 9.40667 7.581 9.48C7.6085 9.55333 7.636 9.60833 7.65433 9.66333C7.81933 9.96583 8.1035 10.36 8.50683 10.8367C8.91933 11.3133 9.35933 11.7992 9.836 12.285C10.331 12.7708 10.8077 13.22 11.2935 13.6325C11.7702 14.0358 12.1643 14.3108 12.476 14.4758C12.5218 14.4942 12.5768 14.5217 12.641 14.5492C12.7143 14.5767 12.7877 14.5858 12.8702 14.5858C13.026 14.5858 13.1452 14.5308 13.246 14.43L13.9427 13.7425C14.1718 13.5133 14.3918 13.3392 14.6027 13.2292C14.8135 13.1008 15.0243 13.0367 15.2535 13.0367C15.4277 13.0367 15.611 13.0733 15.8127 13.1558C16.0143 13.2383 16.2252 13.3575 16.4543 13.5133L19.4885 15.6675C19.7268 15.8325 19.8918 16.025 19.9927 16.2542C20.0843 16.4833 20.1393 16.7125 20.1393 16.9692Z" stroke="#178671" stroke-width="1.5" stroke-miterlimit="10"/>
<path d="M13.75 5.63802L15.5833 7.47135L19.25 3.80469" stroke="#178671" stroke-width="1.5" stroke-linecap="round" stroke-linejoin="round"/>
</svg>
