<svg width="28" height="29" viewBox="0 0 28 29" fill="none" xmlns="http://www.w3.org/2000/svg">
<path d="M12.5438 19.8359V22.2043C12.5438 24.2109 10.6771 25.8326 8.37882 25.8326C6.08048 25.8326 4.20215 24.2109 4.20215 22.2043V19.8359C4.20215 21.8426 6.06882 23.2659 8.37882 23.2659C10.6771 23.2659 12.5438 21.8309 12.5438 19.8359Z" stroke="#178671" stroke-width="2" stroke-linecap="round" stroke-linejoin="round"/>
<path d="M12.5418 16.6284C12.5418 17.2117 12.3785 17.7484 12.0985 18.2151C11.4101 19.3467 9.99848 20.0584 8.36514 20.0584C6.73181 20.0584 5.32014 19.3351 4.63181 18.2151C4.35181 17.7484 4.18848 17.2117 4.18848 16.6284C4.18848 15.6251 4.65514 14.7267 5.40181 14.0734C6.16014 13.4084 7.19848 13.0117 8.35348 13.0117C9.50848 13.0117 10.5468 13.4201 11.3051 14.0734C12.0751 14.7151 12.5418 15.6251 12.5418 16.6284Z" stroke="#178671" stroke-width="2" stroke-linecap="round" stroke-linejoin="round"/>
<path d="M12.5438 16.6268V19.8351C12.5438 21.8418 10.6771 23.2651 8.37882 23.2651C6.08048 23.2651 4.20215 21.8301 4.20215 19.8351V16.6268C4.20215 14.6201 6.06882 12.9984 8.37882 12.9984C9.53382 12.9984 10.5721 13.4068 11.3305 14.0601C12.0771 14.7134 12.5438 15.6234 12.5438 16.6268ZM25.6665 12.9634V15.3668C25.6665 16.0084 25.1531 16.5334 24.4998 16.5568H22.2131C20.9531 16.5568 19.7981 15.6351 19.6931 14.3751C19.6231 13.6401 19.9031 12.9518 20.3931 12.4734C20.8248 12.0301 21.4198 11.7734 22.0731 11.7734H24.4998C25.1531 11.7968 25.6665 12.3218 25.6665 12.9634Z" stroke="#178671" stroke-width="2" stroke-linecap="round" stroke-linejoin="round"/>
<path d="M2.33301 12.4167V10.0833C2.33301 6.91 4.24634 4.69333 7.22134 4.32C7.52467 4.27333 7.83967 4.25 8.16634 4.25H18.6663C18.9697 4.25 19.2613 4.26167 19.5413 4.30833C22.5513 4.65833 24.4997 6.88667 24.4997 10.0833V11.775H22.073C21.4197 11.775 20.8247 12.0317 20.393 12.475C19.903 12.9533 19.623 13.6417 19.693 14.3767C19.798 15.6367 20.953 16.5583 22.213 16.5583H24.4997V18.25C24.4997 21.75 22.1663 24.0833 18.6663 24.0833H15.7497" stroke="#178671" stroke-width="2" stroke-linecap="round" stroke-linejoin="round"/>
</svg>
