<svg width="28" height="29" viewBox="0 0 28 29" fill="none" xmlns="http://www.w3.org/2000/svg">
<path d="M24.5 8.66732V20.334C24.5 23.834 22.75 26.1673 18.6667 26.1673H9.33333C5.25 26.1673 3.5 23.834 3.5 20.334V8.66732C3.5 5.16732 5.25 2.83398 9.33333 2.83398H18.6667C22.75 2.83398 24.5 5.16732 24.5 8.66732Z" stroke="#178671" stroke-width="2" stroke-miterlimit="10" stroke-linecap="round" stroke-linejoin="round"/>
<path d="M15.4587 16.834H20.417M10.5003 21.5007H20.417M18.0837 2.83398V12.004C18.0837 12.5173 17.477 12.774 17.1037 12.4357L14.397 9.93899C14.2896 9.83792 14.1478 9.78164 14.0003 9.78164C13.8529 9.78164 13.711 9.83792 13.6037 9.93899L10.897 12.4357C10.5237 12.774 9.91699 12.5173 9.91699 12.004V2.83398H18.0837Z" stroke="#178671" stroke-width="2" stroke-miterlimit="10" stroke-linecap="round" stroke-linejoin="round"/>
</svg>
